{"title":"Last Exit to Brooklyn (1989) BDRip 720p MediaClub","uid":10641444,"size":6350080304,"categoryP":"video","categoryS":"hd___movies","magnet":"?xt=urn:btih:37aee0d48224e407897932b19fa9267dc40d478a&amp;dn=Last+Exit+to+Brooklyn+%281989%29+BDRip+720p+MediaClub&amp;tr=udp%3A%2F%2Ftracker.openbittorrent.com%3A80&amp;tr=udp%3A%2F%2Fopen.demonii.com%3A1337&amp;tr=udp%3A%2F%2Ftracker.coppersurfer.tk%3A6969&amp;tr=udp%3A%2F%2Fexodus.desync.com%3A6969","seeders":1,"leechers":1,"uploader":"neni69","files":1,"time":1406420058,"description":" &lt;a href=&quot; http://mediaclub.tv/&quot; rel=&quot;nofollow&quot; target=&quot;_NEW&quot;&gt; http://mediaclub.tv/&lt;/a&gt;   Welcome to MediaClub\n\n===================================================================\n\nUnique ID                      : 224182452658039659358759610581247764900 (0xA8A7F8489DA55F688D754ED9919EA9A4)\nComplete name                  : E:MCPosledniy.poworot.na.Bruklin.1989.x264.BDRip(720p)-MediaClubPosledniy.poworot.na.Bruklin.1989.x264.BDRip(720p)-MediaClub.mkv\nFormat                         : Matroska\nFormat version                 : Version 4 / Version 2\nFile size                      : 5.91 GiB\nDuration                       : 1h 42mn\nOverall bit rate mode          : Variable\nOverall bit rate               : 8 227 Kbps\nMovie name                     : -= Release MediaClub =-\nEncoded date                   : UTC 2014-07-17 18:10:04\nWriting application            : mkvmerge v6.4.1 ('Omega Point') built on Sep 16 2013 22:05:10\nWriting library                : libebml v1.3.0 + libmatroska v1.4.1\n\nVideo\nID                             : 1\nFormat                         : AVC\nFormat/Info                    : Advanced Video Codec\nFormat profile                 : &lt;a class=&quot;__cf_email__&quot; href=&quot;/cdn-cgi/l/email-protection&quot; data-cfemail=&quot;3a72535d527a760e140b&quot;&gt;[email&amp;#160;protected]&lt;/a&gt;&lt;script cf-hash='f9e31' type=&quot;text/javascript&quot;&gt;\n/* &lt;![CDATA[ */!function(){try{var t=&quot;currentScript&quot;in document?document.currentScript:function(){for(var t=document.getElementsByTagName(&quot;script&quot;),e=t.length;e--;)if(t[e].getAttribute(&quot;cf-hash&quot;))return t[e]}();if(t&amp;&amp;t.previousSibling){var e,r,n,i,c=t.previousSibling,a=c.getAttribute(&quot;data-cfemail&quot;);if(a){for(e=&quot;&quot;,r=parseInt(a.substr(0,2),16),n=2;a.length-n;n+=2)i=parseInt(a.substr(n,2),16)^r,e+=String.fromCharCode(i);e=document.createTextNode(e),c.parentNode.replaceChild(e,c)}}}catch(u){}}();/* ]]&gt; */&lt;/script&gt;\nFormat settings, CABAC         : Yes\nFormat settings, ReFrames      : 9 frames\nCodec ID                       : V_MPEG4/ISO/AVC\nDuration                       : 1h 42mn\nBit rate                       : 5 926 Kbps\nNominal bit rate               : 4 865 Kbps\nWidth                          : 1 280 pixels\nHeight                         : 694 pixels\nDisplay aspect ratio           : 1.85:1\nFrame rate                     : 23.976 fps\nColor space                    : YUV\nChroma subsampling             : 4:2:0\nBit depth                      : 8 bits\nScan type                      : Progressive\nBits/(Pixel*Frame)             : 0.278\nStream size                    : 4.26 GiB (72%)\nTitle                          : Posledniy.poworot.na.Bruklin.1989.x264.BDRip(720p)-neni\nWriting library                : x264 core 142 r2409+42 04be48a tMod [8-bit@4:2:0 X86_64]\nEncoding settings              : cabac=1 / ref=9 / deblock=1:-3:-3 / analyse=0x3:0x133 / me=umh / subme=11 / psy=1 / fade_compensate=0.00 / psy_rd=1.00:0.25 / mixed_ref=1 / me_range=48 / chroma_me=1 / trellis=2 / 8x8dct=1 / cqm=0 / deadzone=21,11 / fast_pskip=0 / chroma_qp_offset=-4 / threads=9 / lookahead_threads=1 / sliced_threads=0 / nr=0 / decimate=0 / interlaced=0 / bluray_compat=0 / constrained_intra=0 / fgo=0 / bframes=8 / b_pyramid=2 / b_adapt=2 / b_bias=0 / direct=3 / weightb=1 / open_gop=0 / weightp=2 / keyint=250 / keyint_min=23 / scenecut=40 / intra_refresh=0 / rc=2pass / mbtree=0 / bitrate=4865 / ratetol=1.0 / qcomp=0.60 / qpmin=0:0:0 / qpmax=69:69:69 / qpstep=4 / cplxblur=20.0 / qblur=0.5 / ip_ratio=1.40 / pb_ratio=1.30 / aq=2:1.00 / aq-sensitivity=10.00 / aq-factor=1.00:1.00:1.00 / aq2=0 / aq3=0\nLanguage                       : English\nDefault                        : Yes\nForced                         : No\n\nAudio #1\nID                             : 2\nFormat                         : AC-3\nFormat/Info                    : Audio Coding 3\nMode extension                 : CM (complete main)\nFormat settings, Endianness    : Big\nCodec ID                       : A_AC3\nDuration                       : 1h 42mn\nBit rate mode                  : Constant\nBit rate                       : 192 Kbps\nChannel(s)                     : 2 channels\nChannel positions              : Front: L R\nSampling rate                  : 48.0 KHz\nBit depth                      : 16 bits\nCompression mode               : Lossy\nStream size                    : 141 MiB (2%)\nTitle                          : MVO @ AC3 192 kbs\nLanguage                       : Russian\nDefault                        : Yes\nForced                         : No\n\nAudio #2\nID                             : 3\nFormat                         : AC-3\nFormat/Info                    : Audio Coding 3\nMode extension                 : CM (complete main)\nFormat settings, Endianness    : Big\nCodec ID                       : A_AC3\nDuration                       : 1h 42mn\nBit rate mode                  : Constant\nBit rate                       : 192 Kbps\nChannel(s)                     : 2 channels\nChannel positions              : Front: L R\nSampling rate                  : 48.0 KHz\nBit depth                      : 16 bits\nCompression mode               : Lossy\nStream size                    : 141 MiB (2%)\nTitle                          : AVO Michalev @ AC3 192 kbs\nLanguage                       : Russian\nDefault                        : No\nForced                         : No\n\nAudio #3\nID                             : 4\nFormat                         : AC-3\nFormat/Info                    : Audio Coding 3\nMode extension                 : CM (complete main)\nFormat settings, Endianness    : Big\nCodec ID                       : A_AC3\nDuration                       : 1h 42mn\nBit rate mode                  : Constant\nBit rate                       : 192 Kbps\nChannel(s)                     : 2 channels\nChannel positions              : Front: L R\nSampling rate                  : 48.0 KHz\nBit depth                      : 16 bits\nCompression mode               : Lossy\nStream size                    : 141 MiB (2%)\nTitle                          : AVO Gavrilov @ AC3 192 kbs\nLanguage                       : Russian\nDefault                        : No\nForced                         : No\n\nAudio #4\nID                             : 5\nFormat                         : DTS\nFormat/Info                    : Digital Theater Systems\nFormat profile                 : MA / Core\nCodec ID                       : A_DTS\nDuration                       : 1h 42mn\nBit rate mode                  : Variable\nBit rate                       : 1 561 Kbps / 1 510 Kbps\nChannel(s)                     : 6 channels\nChannel positions              : Front: L C R, Side: L R, LFE\nSampling rate                  : 48.0 KHz\nBit depth                      : 24 bits\nCompression mode               : Lossless / Lossy\nTitle                          : Original\nLanguage                       : English\nDefault                        : No\nForced                         : No\n\nText #1\nID                             : 6\nFormat                         : UTF-8\nCodec ID                       : S_TEXT/UTF8\nCodec ID/Info                  : UTF-8 Plain Text\nTitle                          : RUS\nLanguage                       : Russian\nDefault                        : No\nForced                         : No\n\nText #2\nID                             : 7\nFormat                         : UTF-8\nCodec ID                       : S_TEXT/UTF8\nCodec ID/Info                  : UTF-8 Plain Text\nLanguage                       : English\nDefault                        : No\nForced                         : No\n\nMenu\n00:00:00.000                   : en:00:00:00.000\n00:08:34.139                   : en:00:08:34.139\n00:12:56.901                   : en:00:12:56.901\n00:19:24.914                   : en:00:19:24.914\n00:24:18.082                   : en:00:24:18.082\n00:30:09.808                   : en:00:30:09.808\n00:34:46.418                   : en:00:34:46.418\n00:41:39.122                   : en:00:41:39.122\n00:48:48.175                   : en:00:48:48.175\n00:54:10.414                   : en:00:54:10.414\n01:00:56.111                   : en:01:00:56.111\n01:07:29.837                   : en:01:07:29.837\n01:12:55.830                   : en:01:12:55.830\n01:17:12.127                   : en:01:17:12.127\n01:23:01.935                   : en:01:23:01.935\n01:27:36.168                   : en:01:27:36.168\n01:32:14.612                   : en:01:32:14.612\n01:37:58.122                   : en:01:37:58.122","torrent":{"xt":"urn:btih:37aee0d48224e407897932b19fa9267dc40d478a","amp;dn":"Last+Exit+to+Brooklyn+%281989%29+BDRip+720p+MediaClub","amp;tr":["udp%3A%2F%2Ftracker.openbittorrent.com%3A80","udp%3A%2F%2Fopen.demonii.com%3A1337","udp%3A%2F%2Ftracker.coppersurfer.tk%3A6969","udp%3A%2F%2Fexodus.desync.com%3A6969"],"infoHash":"37aee0d48224e407897932b19fa9267dc40d478a","infoHashBuffer":{"type":"Buffer","data":[55,174,224,212,130,36,228,7,137,121,50,177,159,169,38,125,196,13,71,138]},"announce":[],"urlList":[]}}